<?xml version="1.0" encoding="UTF-8" standalone="no"?>
<!-- Created with Inkscape (http://www.inkscape.org/) -->
<svg xmlns:dc="http://purl.org/dc/elements/1.1/" xmlns:cc="http://creativecommons.org/ns#" xmlns:rdf="http://www.w3.org/1999/02/22-rdf-syntax-ns#" xmlns:svg="http://www.w3.org/2000/svg" xmlns="http://www.w3.org/2000/svg" xmlns:sodipodi="http://sodipodi.sourceforge.net/DTD/sodipodi-0.dtd" xmlns:inkscape="http://www.inkscape.org/namespaces/inkscape" width="465" height="353" id="svg2" version="1.1" inkscape:version="0.48.4 r9939" sodipodi:docname="fortune_cookie.svg">
  <title id="title7676">Fortune cookie</title>
  <sodipodi:namedview id="base" pagecolor="#99999f" bordercolor="#666666" borderopacity="1.0" inkscape:pageopacity="0" inkscape:pageshadow="2" inkscape:zoom="0.81792412" inkscape:cx="28.958421" inkscape:cy="139.06087" inkscape:document-units="px" inkscape:current-layer="layer2" showgrid="false" inkscape:window-width="913" inkscape:window-height="1041" inkscape:window-x="63" inkscape:window-y="0" inkscape:window-maximized="0" inkscape:showpageshadow="false" showborder="true" inkscape:object-paths="false" inkscape:object-nodes="false" fit-margin-top="0" fit-margin-left="0" fit-margin-right="0" fit-margin-bottom="0"/>
  <defs id="defs4"/>
  <metadata id="metadata7">
    <rdf:RDF>
      <cc:Work rdf:about="">
        <dc:format>image/svg+xml</dc:format>
        <dc:type rdf:resource="http://purl.org/dc/dcmitype/StillImage"/>
        <dc:title>Fortune cookie</dc:title>
        <dc:date>15.08.2013</dc:date>
        <dc:creator>
          <cc:Agent>
            <dc:title>Olga AhNinniah Bikmullina</dc:title>
          </cc:Agent>
        </dc:creator>
        <dc:subject>
          <rdf:Bag>
            <rdf:li>Fortune cookie</rdf:li>
            <rdf:li>cookie</rdf:li>
            <rdf:li>fortune</rdf:li>
            <rdf:li>Chinese food</rdf:li>
            <rdf:li>vector</rdf:li>
            <rdf:li>clipart</rdf:li>
            <rdf:li>clip art</rdf:li>
            <rdf:li>image</rdf:li>
            <rdf:li>svg</rdf:li>
          </rdf:Bag>
        </dc:subject>
        <cc:license rdf:resource="http://creativecommons.org/licenses/publicdomain/"/>
      </cc:Work>
      <cc:License rdf:about="http://creativecommons.org/licenses/publicdomain/">
        <cc:permits rdf:resource="http://creativecommons.org/ns#Reproduction"/>
        <cc:permits rdf:resource="http://creativecommons.org/ns#Distribution"/>
        <cc:permits rdf:resource="http://creativecommons.org/ns#DerivativeWorks"/>
      </cc:License>
    </rdf:RDF>
  </metadata>
  <g inkscape:label="Layer" id="layer2" inkscape:groupmode="layer" transform="translate(-2365.3594,1838.6566)">
    <g id="g8578" inkscape:export-filename="G:\Work. Art and animation\Game art\tellmyday\fortune_cookie\                     \1.png" inkscape:export-xdpi="90" inkscape:export-ydpi="90" transform="translate(1.2226073,0)">
      <rect style="color:#000000;fill:none;stroke:none;stroke-width:1;marker:none;visibility:visible;display:inline;overflow:visible;enable-background:accumulate" id="rect8481" width="462" height="353" x="2365.3594" y="-1838.6566"/>
      <g id="g8555" transform="translate(821.59212,-389.04285)">
        <path style="fill:#f9f9f9;stroke:none" d="m 1950.1688,-1352.5528 c -18.7323,3.7349 -39.7946,12.0014 -68.0343,29.8244 -42.7828,27.0017 -86.2636,71.3996 -116.2543,64.9212 -66.1497,-14.2894 -120.937,-14.1768 -150.9941,-7.3678 -18.9536,4.2937 -47.4306,19.2162 -71.1188,38.5823 6.3911,20.9281 18.3138,42.3086 33.0293,59.2939 19.9793,-33.7115 48.8152,-61.0514 143.6584,-37.2963 100.0122,25.0497 165.0698,-54.5159 176.521,-63.4365 31.2554,-24.3484 49.341,-17.1422 65.3977,-11.3371 l 43.3936,-75.897 c 0,0 -34.1553,-1.5626 -55.5985,2.7129 z" id="path8557" inkscape:connector-curvature="0" sodipodi:nodetypes="ssssccssccs"/>
        <path d="m 1982.625,36.96875 c -10.9798,0.140719 -24.6214,0.867751 -34.375,2.8125 -17.6545,3.519999 -37.7044,11.286267 -65.375,28.75 -20.7582,13.101225 -42.2315,30.891836 -62.6562,44.875 -20.4248,13.98316 -40.0522,25.31925 -59.4688,21.125 -65.2598,-14.0972 -119.5413,-13.76111 -147.5938,-7.40625 -15.7108,3.55911 -41.4975,16.61304 -63.4687,33.59375 5.2056,14.9137 13.2791,29.87139 23.0937,42.96875 9.6429,-13.94561 22.1711,-26.76033 41.5,-34 23.7099,-8.88053 56.326,-9.4723 104.625,2.625 47.6973,11.94658 86.5028,-0.9301 115.5,-18.09375 14.4987,-8.58183 26.4464,-18.24635 35.4688,-26.34375 9.0224,-8.0974 14.2536,-14.05979 18.75,-17.5625 16.5104,-12.861815 30.5861,-18.015091 42.875,-18.625 9.2302,-0.458102 17.1078,1.578316 23.8125,3.84375 L 1988.75,37.0625 c -2.7675,-0.03193 -2.6361,-0.138464 -6.125,-0.09375 z" id="path8559" style="fill:#ffffff;stroke:none" inkscape:original="M 1982.5312 29.0625 C 1971.312 29.206287 1957.4091 29.8935 1946.6875 32.03125 C 1927.9552 35.76614 1906.896 44.02075 1878.6562 61.84375 C 1835.8735 88.84545 1792.397 133.25965 1762.4062 126.78125 C 1696.2566 112.49185 1641.4634 112.59725 1611.4062 119.40625 C 1592.4526 123.69995 1563.9695 138.6339 1540.2812 158 C 1546.6724 178.9281 1558.597 200.29595 1573.3125 217.28125 C 1593.2918 183.56975 1622.1255 156.2449 1716.9688 180 C 1816.9809 205.0497 1882.0488 125.4831 1893.5 116.5625 C 1924.7554 92.214101 1942.8495 99.413651 1958.9062 105.21875 L 2002.2812 29.3125 C 2002.2812 29.3125 1993.7505 28.918713 1982.5312 29.0625 z " inkscape:radius="-7.9165344" sodipodi:type="inkscape:offset" transform="translate(0,-1384.5348)"/>
      </g>
      <path style="color:#000000;fill:#fcb659;fill-opacity:1;stroke:none;stroke-width:1;marker:none;visibility:visible;display:inline;overflow:visible;enable-background:accumulate" d="m 2444.9251,-1783.1658 c -13.2459,23.5214 -20.8241,50.6614 -20.8241,79.5792 0,89.7167 72.7515,162.4392 162.4707,162.4392 89.7193,0 162.4437,-72.7225 162.4437,-162.4392 0,-28.9178 -7.5783,-56.0578 -20.824,-79.5792 -37.3705,10.2241 -102.8114,32.2371 -141.6197,94.546 -29.0465,-55.2749 -99.1901,-87.3953 -141.6466,-94.546 z" id="path8561" inkscape:connector-curvature="0" sodipodi:nodetypes="csssccc"/>
      <path style="fill:#f79937;fill-opacity:1;stroke:none" d="m 2445.1658,-1783.1228 -0.6423,0.8657 c 0.866,-0.4017 112.4791,108.1269 118.9277,121.0778 7.1821,-10.9835 14.5896,-21.178 23.1205,-27.4405 -29.1342,-54.8901 -99.0413,-87.2892 -141.4059,-94.503 z" id="path8563" inkscape:connector-curvature="0" sodipodi:nodetypes="ccccc"/>
      <path style="fill:#f79937;fill-opacity:1;stroke:none" d="m 2728.1914,-1783.1658 -2.569,0.3351 c 7.6804,76.5553 12.07,152.5465 -53.3067,216.0188 45.7737,-28.7292 76.1763,-79.6599 76.1763,-137.6925 0,-28.5437 -7.3712,-55.3521 -20.3006,-78.6614 z" id="path8565" inkscape:connector-curvature="0"/>
      <path style="fill:#f68914;fill-opacity:1;fill-rule:evenodd;stroke:none" d="m 2445.1658,-1783.1228 c 47.9413,25.5231 90.1238,63.4111 125.2105,111.863 3.0682,-4.2076 6.2156,-8.1307 9.522,-11.5047 0.013,-0.013 0.043,-0.043 0.055,-0.055 -30.3511,-49.3507 -94.6856,-84.2702 -134.7884,-100.3024 z" id="path8567" inkscape:connector-curvature="0"/>
      <path inkscape:connector-curvature="0" id="path8569" d="m 2733.4953,-1754.608 -1.7492,0.2282 c -2.6574,0.3466 3.2149,43.3462 1.3395,63.5743 -3.2321,34.8621 -11.9685,60.5517 -11.9685,60.5517 -0.9766,2.8692 1.0604,6.944 3.615,2.7113 6.7279,-11.1478 21.1393,-46.3145 21.1393,-74.9532 0,-19.4345 -3.6575,-53.2495 -12.3761,-52.1123 z" style="fill:#f68914;fill-opacity:1;stroke:none" sodipodi:nodetypes="sssssss"/>
      <path style="color:#000000;fill:#f9f9f9;fill-opacity:1;fill-rule:nonzero;stroke:none;stroke-width:1;marker:none;visibility:visible;display:inline;overflow:visible;enable-background:accumulate" d="m 2810.661,-1744.5879 c -11.662,0.058 -27.1711,0.6498 -38.8979,2.9879 -10.7166,2.1367 -22.2014,5.7651 -35.3516,11.8118 l 0,61.3487 c 20.8255,-10.0475 34.8276,-4.5733 47.5543,0.028 l 43.3936,-75.897 c 0,0 -4.8167,-0.23 -11.9514,-0.2792 -1.4863,-0.01 -3.081,-0.01 -4.747,0 z" id="path8571" inkscape:connector-curvature="0"/>
      <path sodipodi:nodetypes="csssccc" inkscape:connector-curvature="0" id="path8574" d="m 2451.2846,-1737.8553 c -7.3041,16.8221 -9.377,60.9959 -3.3252,80.7719 10.1219,33.0754 69.3822,99.8957 111.1351,102.0646 64.0791,3.3287 119.7914,-48.7456 119.7914,-112.9093 0,-20.6814 -6.1428,-52.3821 -15.6159,-69.2042 -26.7267,7.3121 -73.5286,55.9405 -101.2836,100.5026 -20.7735,-39.5315 -80.3376,-96.1115 -110.7018,-101.2256 z" style="color:#000000;fill:#fdc67d;fill-opacity:1;stroke:none;stroke-width:1;marker:none;visibility:visible;display:inline;overflow:visible;enable-background:accumulate"/>
      <path inkscape:connector-curvature="0" style="color:#000000;fill:#ffffff;fill-opacity:1;fill-rule:nonzero;stroke:none;stroke-width:1;marker:none;visibility:visible;display:inline;overflow:visible;enable-background:accumulate" d="m 2803.5921,-1735.375 c -10.9798,0.1408 -24.6214,0.8677 -34.375,2.8125 -9.8779,1.9694 -20.5196,5.2916 -32.8125,10.875 l 0,44.2813 c 5.6798,-1.9921 11.028,-3.0002 16.0625,-3.25 9.2302,-0.4582 17.1078,1.5782 23.8125,3.8437 l 33.4375,-58.4687 c -2.7675,-0.032 -2.6361,-0.1383 -6.125,-0.094 z" id="path8576"/>
    </g>
  </g>
</svg>